<svg xmlns="http://www.w3.org/2000/svg" shape-rendering="geometricPrecision" text-rendering="geometricPrecision" image-rendering="optimizeQuality" fill-rule="evenodd" clip-rule="evenodd" viewBox="0 0 512 496.659"><path d="M390.422 382.907c-9.529-19.125-20.794-36.28-33.52-52.352-29.017-4.419-53.614-16.849-55.536-39.288-14.251 9.265-30.706 15.023-48.943 15.622-17.783.584-35.709-3.815-51.244-13.794-5.727 21.431-24.758 33.681-47.236 38.923-12.256 15.649-23.124 32.343-32.365 50.889l40.728-.994L256 463.388l93.694-81.475 40.728.994zm6.508-51.062c18.082 7.784 34.999 15.985 49.454 25.048 61.194 38.366 57.222 78.554 65.616 139.766H0c6.293-61.987 4.422-101.4 65.616-139.766 13.049-8.181 28.101-15.661 44.209-22.766-25.591-3.05-47.755-13.145-52.774-27.279 43.991-3.574 60.161-49.278 65.582-96.667 8.256-72.549-3.198-165.89 84.116-201.182 69.332-28.039 158.988 9.706 168.767 109.594-.408 67.878 18.681 183.321 79.433 188.255-4.895 13.789-29.71 22.711-58.019 24.997zm-86.986-62.849c38.591-42.681 44.45-85.643 33.452-140.466-26.529-12.297-43.885-39.33-52.774-79.944-10.621 77.322-105.579 74.005-129.458 88.073 0 47.54-2.866 96.405 32.164 134.179 31.907 34.404 86.457 30.096 116.616-1.842zm-85.485 145.509l18.559-64.41-9.099-9.953c-4.106-5.981-4.996-11.221-2.721-15.723 4.923-9.748 15.125-7.933 24.646-7.933 9.984 0 22.307-1.888 25.43 10.604 1.043 4.176-.269 8.55-3.193 13.052l-9.099 9.953 18.559 64.41L256 439.426l-31.541-24.921z"/></svg>